<?xml version="1.0" encoding="UTF-8"?>
<svg id="Layer_2" data-name="Layer 2" xmlns="http://www.w3.org/2000/svg" width="120.11789mm" height="99.10033mm" viewBox="0 0 340.49165 280.91432">
  <g id="Layer_1-2" data-name="Layer 1">
    <g>
      <polygon points="170.2547 0 174.83113 9.27287 185.06435 10.75984 177.65953 17.97777 179.40757 28.16963 170.2547 23.35769 161.10183 28.16963 162.84987 17.97777 155.44505 10.75984 165.67827 9.27287 170.2547 0" style="fill: #f2f2f3;"/>
      <polygon points="203.58128 14.95491 205.86949 19.59135 210.9861 20.33483 207.28369 23.94379 208.15771 29.03973 203.58128 26.63375 199.00484 29.03973 199.87886 23.94379 196.17645 20.33483 201.29306 19.59135 203.58128 14.95491" style="fill: #f2f2f3;"/>
      <polygon points="136.92812 14.95491 139.21634 19.59135 144.33295 20.33483 140.63054 23.94379 141.50456 29.03973 136.92812 26.63375 132.35169 29.03973 133.22571 23.94379 129.5233 20.33483 134.63991 19.59135 136.92812 14.95491" style="fill: #f2f2f3;"/>
      <path d="m260.63054,52.71885s5.03704,11.55556,5.03704,24c0,0,43.85185-5.33333,61.62963-17.48148,17.77778-12.14815,12.44444-26.07407,12.44444-26.07407,0,0-39.7037,12.44444-79.11111,19.55556Z" style="fill: #f2f2f3;"/>
      <path d="m266.26017,80.2744v20.74074s33.77778-1.77778,48.2963-12.74074c0,0,9.16496-7.40741,9.77778-17.48148,0,0-26.07407,6.51852-58.07407,9.48148Z" style="fill: #f2f2f3;"/>
      <path d="m266.26017,106.34848s0,13.03704-1.48148,18.66667c0,0,37.03704,0,42.96296-26,0,0-21.48148,7.33333-41.48148,7.33333Z" style="fill: #f2f2f3;"/>
      <path d="m79.86111,52.71885s-5.03704,11.55556-5.03704,24c0,0-43.85185-5.33333-61.62963-17.48148C-4.58333,47.08922.75,33.16329.75,33.16329c0,0,39.7037,12.44444,79.11111,19.55556Z" style="fill: #f2f2f3;"/>
      <path d="m74.23148,80.2744v20.74074s-33.77778-1.77778-48.2963-12.74074c0,0-9.16496-7.40741-9.77778-17.48148,0,0,26.07407,6.51852,58.07407,9.48148Z" style="fill: #f2f2f3;"/>
      <path d="m74.23148,106.34848s0,13.03704,1.48148,18.66667c0,0-37.03704,0-42.96296-26,0,0,21.48148,7.33333,41.48148,7.33333Z" style="fill: #f2f2f3;"/>
      <path d="m248.66614,55.9781c-1.44116-5.69641-7.5799-10.95062-13.25555-11.6131-43.93903-4.88129-87.87805-4.88129-131.81708,0-5.67566.66248-11.81439,5.91663-13.25549,11.6131-6.32367,25.77777-6.32367,51.55554,0,77.33331,1.4411,5.69647,7.5799,10.95062,13.25549,11.6131,6.12347.6803,12.24689,1.25562,18.37036,1.74628v23.67767l33.4812-21.92999.00592-.01123c26.6532.63123,53.3064-.52173,79.95959-3.48273,5.6756-.66248,11.81433-5.91663,13.25555-11.6131,6.32361-25.77777,6.32361-51.55554,0-77.33331Zm-31.88641,18.96295s-.29626,1.77777-4.14813,2.0741l-56,.59259.29626,9.48145h29.62964s3.25928.29633,3.5556,4.14813v6.53125c-.29633,3.85187-3.5556,4.14813-3.5556,4.14813h-29.62964l-.29626,9.48151,56,.59259c3.85187.29626,4.14813,2.07404,4.14813,2.07404v13.62964c-.29626,3.25928-4.14813,3.25928-4.14813,3.25928-25.48151,2.96295-85.70367.66669-85.70367.66669-7.70374-.51855-7.33337-4.22223-7.33337-4.22223l-.25653-30.53125h-.03973l.01984-2.36401-.01984-2.36401h.03973l.25653-30.53119s-.37036-3.70374,7.33337-4.22223c0,0,60.22217-2.29633,85.70367.66663,0,0,3.85187,0,4.14813,3.25928v13.62964Z" style="fill: #f2f2f3;"/>
      <polygon points="97.18609 181.31144 47.5935 181.31144 47.5935 247.38551 97.37128 247.38551 97.37128 234.05218 66.55646 234.05218 66.55646 220.71885 92.03795 220.71885 92.03795 207.68181 65.96387 207.68181 65.96387 195.53366 97.18609 195.53366 97.18609 181.31144" style="fill: #f2f2f3;"/>
      <polygon points="126.11202 180.42255 106.85276 184.5707 106.85276 247.38551 126.11202 247.38551 126.11202 180.42255" style="fill: #f2f2f3;"/>
      <path d="m135.5935,200.5707v32.88889s0,16.2963,18.07407,16.2963c0,0,10.92822.2963,15.83448-6.22222v4.85185h16.75811v-47.81481h-16.75811v28.14815s0,7.11111-8.57522,7.11111c-6.96296,0-6.96296-5.92593-6.96296-5.92593v-29.33333h-18.37037Z" style="fill: #f2f2f3;"/>
      <path d="m218.85276,186.05218l-18.37037,4.74074v9.77778h-7.40741v13.77778h8v20s-2.07407,16.30041,17.77778,15.40947c0,0,10.66667-.59465,15.11111-2.37243l-2.96296-13.03704s-11.85185,3.55556-11.85185-3.55556v-16.44444h14.81481v-13.77778h-14.81481l-.2963-14.51852Z" style="fill: #f2f2f3;"/>
      <path d="m258.26017,180.42255l-18.37037,3.85185v64.11111h18.37037v-28.85185s.2963-5.62963,8-5.62963,7.11111,5.33333,7.11111,5.33333v29.14815h18.37037v-35.66667s-1.77778-14.22222-18.37037-14.22222c0,0-10.07407,0-15.11111,7.11111v-25.18519Z" style="fill: #f2f2f3;"/>
      <g>
        <path d="m87.75537,280.23805l.72754-4.28857c1.59424.39893,3.02832.59766,4.30225.59766,1.27344,0,2.30029-.05176,3.08008-.15576v-1.2998l-2.33936-.20801c-2.11426-.19043-3.56543-.69727-4.354-1.52051-.78857-.82275-1.18262-2.04053-1.18262-3.65186,0-2.21826.48096-3.74316,1.44238-4.5752.96191-.83154,2.59521-1.24756,4.8999-1.24756s4.38379.2168,6.23828.6499l-.6499,4.15869c-1.61133-.25977-2.90234-.38965-3.87256-.38965-.9707,0-1.79395.04346-2.46973.12988v1.27393l1.87158.18164c2.27002.22559,3.83838.76709,4.70508,1.62451.86621.85791,1.29932,2.0498,1.29932,3.57422,0,1.0918-.14746,2.01465-.44189,2.76807-.29492.75391-.64551,1.32568-1.05273,1.71582-.40723.38965-.9834.68896-1.72852.89697-.74512.20752-1.39941.33301-1.9624.37646-.56348.04346-1.3125.06543-2.24854.06543-2.25293,0-4.34082-.22559-6.26416-.67627Z" style="fill: #f2f2f3;"/>
        <path d="m115.542,276.59938h-3.37891v3.9248h-5.19873v-16.24561h8.1875c3.72559,0,5.58887,2.00146,5.58887,6.00439,0,2.20068-.48535,3.82959-1.45557,4.88672-.36426.39893-.8667.73682-1.50781,1.01367-.64111.27734-1.38672.41602-2.23535.41602Zm-3.37891-8.16211v4.00293h1.19531c.62402,0,1.0791-.06494,1.36475-.19482.28613-.12988.42871-.42871.42871-.89697v-1.81934c0-.46777-.14258-.7666-.42871-.89697-.28564-.12988-.74072-.19482-1.36475-.19482h-1.19531Z" style="fill: #f2f2f3;"/>
        <path d="m136.2583,274.38991h-5.19824v1.97559h6.36816v4.15869h-11.56689v-16.24561h11.43701l-.6499,4.15869h-5.58838v2.18359h5.19824v3.76904Z" style="fill: #f2f2f3;"/>
        <path d="m147.07178,280.52418h-5.48486l4.21094-16.24561h8.03174l4.21094,16.24561h-5.48438l-.59766-2.57324h-4.28906l-.59766,2.57324Zm2.59912-11.25488l-1.06592,4.54883h2.3916l-1.03955-4.54883h-.28613Z" style="fill: #f2f2f3;"/>
        <path d="m167.78809,273.45387v7.07031h-5.19873v-16.24561h5.19873v6.62793h.10352c.03467-.51953.12109-.93555.26025-1.24756l2.54736-5.38037h5.61426l-3.89893,7.97998,4.0293,8.26562h-5.61475l-2.67725-5.82227c-.13916-.31201-.22559-.72803-.26025-1.24805h-.10352Z" style="fill: #f2f2f3;"/>
        <path d="m198.64161,274.49391h-4.41846v6.03027h-5.19873v-16.24561h10.65723l-.6499,4.15869h-4.80859v2.18359h4.41846v3.87305Z" style="fill: #f2f2f3;"/>
        <path d="m218.96778,280.52418h-5.71826l-2.13135-4.83496h-1.11768v4.83496h-5.19873v-16.24561h8.1875c3.72559,0,5.58887,1.89746,5.58887,5.69238,0,2.59912-.80566,4.31494-2.41748,5.14648l2.80713,5.40674Zm-8.96729-12.08691v3.24902h1.19531c.62402,0,1.0791-.06494,1.36475-.19482.28613-.12988.42871-.42871.42871-.89648v-1.06592c0-.46777-.14258-.7666-.42871-.89697-.28564-.12988-.74072-.19482-1.36475-.19482h-1.19531Z" style="fill: #f2f2f3;"/>
        <path d="m234.74512,274.38991h-5.19824v1.97559h6.36816v4.15869h-11.56689v-16.24561h11.43701l-.6499,4.15869h-5.58838v2.18359h5.19824v3.76904Z" style="fill: #f2f2f3;"/>
        <path d="m252.08252,274.38991h-5.19824v1.97559h6.36816v4.15869h-11.56689v-16.24561h11.43701l-.6499,4.15869h-5.58838v2.18359h5.19824v3.76904Z" style="fill: #f2f2f3;"/>
      </g>
      <polygon points="75.71296 269.60773 30.11202 271.08922 75.71296 272.5707 75.71296 269.60773" style="fill: #f2f2f3;"/>
      <polygon points="265.81572 269.60773 311.41667 271.08922 265.81572 272.5707 265.81572 269.60773" style="fill: #f2f2f3;"/>
    </g>
  </g>
</svg>