<?xml version="1.0" encoding="UTF-8"?>
<svg id="Layer_2" data-name="Layer 2" xmlns="http://www.w3.org/2000/svg" width="120.11789mm" height="60.09515mm" viewBox="0 0 340.49165 170.34846">
  <g id="Layer_1-2" data-name="Layer 1">
    <g>
      <polygon points="170.2547 0 174.83113 9.27287 185.06435 10.75984 177.65953 17.97777 179.40757 28.16963 170.2547 23.35769 161.10183 28.16963 162.84987 17.97777 155.44505 10.75984 165.67827 9.27287 170.2547 0" style="fill: #f2f2f3;"/>
      <polygon points="203.58128 14.95491 205.86949 19.59135 210.9861 20.33483 207.28369 23.94379 208.15771 29.03973 203.58128 26.63375 199.00484 29.03973 199.87886 23.94379 196.17645 20.33483 201.29306 19.59135 203.58128 14.95491" style="fill: #f2f2f3;"/>
      <polygon points="136.92812 14.95491 139.21634 19.59135 144.33295 20.33483 140.63054 23.94379 141.50456 29.03973 136.92812 26.63375 132.35169 29.03973 133.22571 23.94379 129.5233 20.33483 134.63991 19.59135 136.92812 14.95491" style="fill: #f2f2f3;"/>
      <path d="m260.63054,52.71885s5.03704,11.55556,5.03704,24c0,0,43.85185-5.33333,61.62963-17.48148,17.77778-12.14815,12.44444-26.07407,12.44444-26.07407,0,0-39.7037,12.44444-79.11111,19.55556Z" style="fill: #f2f2f3;"/>
      <path d="m266.26017,80.2744v20.74074s33.77778-1.77778,48.2963-12.74074c0,0,9.16496-7.40741,9.77778-17.48148,0,0-26.07407,6.51852-58.07407,9.48148Z" style="fill: #f2f2f3;"/>
      <path d="m266.26017,106.34848s0,13.03704-1.48148,18.66667c0,0,37.03704,0,42.96296-26,0,0-21.48148,7.33333-41.48148,7.33333Z" style="fill: #f2f2f3;"/>
      <path d="m79.86111,52.71885s-5.03704,11.55556-5.03704,24c0,0-43.85185-5.33333-61.62963-17.48148C-4.58333,47.08922.75,33.16329.75,33.16329c0,0,39.7037,12.44444,79.11111,19.55556Z" style="fill: #f2f2f3;"/>
      <path d="m74.23148,80.2744v20.74074s-33.77778-1.77778-48.2963-12.74074c0,0-9.16496-7.40741-9.77778-17.48148,0,0,26.07407,6.51852,58.07407,9.48148Z" style="fill: #f2f2f3;"/>
      <path d="m74.23148,106.34848s0,13.03704,1.48148,18.66667c0,0-37.03704,0-42.96296-26,0,0,21.48148,7.33333,41.48148,7.33333Z" style="fill: #f2f2f3;"/>
      <path d="m248.66614,55.9781c-1.44116-5.69641-7.5799-10.95062-13.25555-11.6131-43.93903-4.88129-87.87805-4.88129-131.81708,0-5.67566.66248-11.81439,5.91663-13.25549,11.6131-6.32367,25.77777-6.32367,51.55554,0,77.33331,1.4411,5.69647,7.5799,10.95062,13.25549,11.6131,6.12347.6803,12.24689,1.25562,18.37036,1.74628v23.67767l33.4812-21.92999.00592-.01123c26.6532.63123,53.3064-.52173,79.95959-3.48273,5.6756-.66248,11.81433-5.91663,13.25555-11.6131,6.32361-25.77777,6.32361-51.55554,0-77.33331Zm-31.88641,18.96295s-.29626,1.77777-4.14813,2.0741l-56,.59259.29626,9.48145h29.62964s3.25928.29633,3.5556,4.14813v6.53125c-.29633,3.85187-3.5556,4.14813-3.5556,4.14813h-29.62964l-.29626,9.48151,56,.59259c3.85187.29626,4.14813,2.07404,4.14813,2.07404v13.62964c-.29626,3.25928-4.14813,3.25928-4.14813,3.25928-25.48151,2.96295-85.70367.66669-85.70367.66669-7.70374-.51855-7.33337-4.22223-7.33337-4.22223l-.25653-30.53125h-.03973l.01984-2.36401-.01984-2.36401h.03973l.25653-30.53119s-.37036-3.70374,7.33337-4.22223c0,0,60.22217-2.29633,85.70367.66663,0,0,3.85187,0,4.14813,3.25928v13.62964Z" style="fill: #f2f2f3;"/>
    </g>
  </g>
</svg>